# xmcd CD database file
#
# Track frame offsets:
#	150
#	10607
#	21852
#	39674
#	54771
#	72014
#	92140
#	108612
#	123733
#	135742
#
# Disc length: 2143 seconds
#
# Revision: 7
# Processed by: cddbd v1.5.2PL0 Copyright (c) Steve Scherf et al.
# Submitted via: CDex 1.70beta3
#
DISCID=80085d0a
DTITLE=Various Artist - OKUDA TAMIO COVERS DISC1
DYEAR=2007
DGENRE=Rock
TTITLE0=木村カエラ - マシマロ
TTITLE1=B-DASH - ワインのばか
TTITLE2=斉藤和義 - カヌー
TTITLE3=スピッツ - さすらい
TTITLE4=GOING UNDER GROUND - イージュー★ライダー
TTITLE5=サンボマスター - 恋のかけら
TTITLE6=The ピーズ - MOTHER
TTITLE7=チャットモンチー - 息子
TTITLE8=GLAY - 野ばら
TTITLE9=中孝介 - 手紙
EXTD=YEAR: 2007
EXTT0=
EXTT1=
EXTT2=
EXTT3=
EXTT4=
EXTT5=
EXTT6=
EXTT7=
EXTT8=
EXTT9=
PLAYORDER=
